<?xml version="1.0" encoding="utf-8"?>
<!-- Generator: Adobe Illustrator 24.0.3, SVG Export Plug-In . SVG Version: 6.00 Build 0)  -->
<svg version="1.1" id="Capa_1" xmlns="http://www.w3.org/2000/svg" xmlns:xlink="http://www.w3.org/1999/xlink" x="0px" y="0px"
	 viewBox="0 0 438.5 438.5" style="enable-background:new 0 0 438.5 438.5;" xml:space="preserve">
<g>
	<path d="M436.3,409.2c-1.5-2.5-3.5-4.5-6-6c-2.5-1.5-5.3-2.2-8.3-2.2c-3,0-5.8,0.7-8.3,2.2c-2.5,1.5-4.5,3.5-6,6
		c-1.5,2.5-2.2,5.3-2.2,8.3c0,3.6,1,6.8,3.1,9.7c2.1,2.9,4.8,4.9,8.1,6c0.4,0.1,0.7,0,0.9-0.2c0.2-0.2,0.3-0.4,0.3-0.6
		c0,0,0-0.4,0-1.2c0-0.7,0-1.4,0-1.9l-0.5,0.1c-0.3,0.1-0.7,0.1-1.2,0.1c-0.5,0-1-0.1-1.5-0.2c-0.5-0.1-1-0.3-1.4-0.6
		c-0.4-0.3-0.8-0.8-0.9-1.3l-0.2-0.5c-0.1-0.3-0.4-0.7-0.7-1.1c-0.3-0.4-0.6-0.7-0.9-0.8l-0.2-0.1c-0.1-0.1-0.2-0.2-0.3-0.3
		c-0.1-0.1-0.2-0.2-0.2-0.3c0-0.1,0-0.2,0.1-0.2c0.1-0.1,0.3-0.1,0.6-0.1l0.4,0.1c0.3,0.1,0.6,0.2,1.1,0.5c0.4,0.3,0.8,0.7,1,1.1
		c0.3,0.6,0.7,1,1.2,1.3c0.5,0.3,0.9,0.5,1.4,0.5c0.5,0,0.9,0,1.2-0.1c0.3-0.1,0.7-0.2,1-0.3c0.1-1,0.5-1.7,1.1-2.2
		c-0.8-0.1-1.5-0.2-2.2-0.4c-0.7-0.2-1.3-0.5-2-0.8c-0.7-0.4-1.3-0.9-1.7-1.4c-0.5-0.6-0.8-1.3-1.1-2.3c-0.3-0.9-0.4-2-0.4-3.2
		c0-1.7,0.6-3.2,1.7-4.4c-0.5-1.3-0.5-2.8,0.2-4.4c0.4-0.1,1,0,1.8,0.3c0.8,0.3,1.4,0.6,1.8,0.8c0.4,0.2,0.7,0.4,0.9,0.6
		c1.3-0.4,2.7-0.6,4.1-0.6s2.8,0.2,4.1,0.6l0.8-0.5c0.6-0.3,1.2-0.7,2-0.9c0.8-0.3,1.3-0.4,1.7-0.2c0.6,1.6,0.7,3.1,0.2,4.4
		c1.1,1.2,1.7,2.7,1.7,4.4c0,1.2-0.1,2.3-0.4,3.2c-0.3,0.9-0.7,1.7-1.1,2.3c-0.5,0.6-1,1-1.7,1.4c-0.7,0.4-1.4,0.7-2,0.8
		c-0.7,0.2-1.4,0.3-2.2,0.4c0.7,0.6,1.1,1.7,1.1,3v4.5c0,0.3,0.1,0.5,0.3,0.6c0.2,0.2,0.5,0.2,0.8,0.2c3.3-1.1,6-3.1,8.1-6
		c2.1-2.9,3.1-6.1,3.1-9.7C438.5,414.5,437.8,411.7,436.3,409.2z"/>
</g>
</svg>
